<?xml version="1.0" standalone="no"?>
<!DOCTYPE svg PUBLIC "-//W3C//DTD SVG 20010904//EN"
 "http://www.w3.org/TR/2001/REC-SVG-20010904/DTD/svg10.dtd">
<svg version="1.0" xmlns="http://www.w3.org/2000/svg"
 width="3464.000000pt" height="3464.000000pt" viewBox="0 0 3464.000000 3464.000000"
 preserveAspectRatio="xMidYMid meet">
<metadata>
Created by potrace 1.16, written by Peter Selinger 2001-2019
</metadata>
<g transform="translate(0.000000,3464.000000) scale(0.100000,-0.100000)"
fill="#000000" stroke="none">
<path d="M17840 19595 c-390 -49 -667 -212 -786 -462 -14 -31 -36 -88 -48
-127 -21 -70 -21 -79 -21 -1041 0 -966 0 -970 22 -1042 66 -219 186 -359 398
-464 124 -60 240 -94 415 -120 183 -28 554 -22 730 10 346 64 575 213 689 446
69 141 71 160 71 734 l0 510 -22 26 c-13 14 -41 30 -63 35 -52 12 -1058 12
-1109 0 -21 -5 -48 -18 -60 -30 -20 -20 -21 -32 -24 -267 -3 -260 1 -292 42
-316 14 -8 98 -14 251 -17 l230 -5 0 -141 c0 -136 -1 -142 -30 -199 -59 -116
-176 -170 -370 -169 -224 2 -352 81 -385 238 -7 35 -10 295 -8 802 l3 749 28
57 c32 66 70 101 147 137 49 22 71 26 193 29 123 4 145 2 209 -19 147 -47 204
-124 217 -299 7 -94 10 -105 34 -126 38 -32 79 -36 385 -32 l274 3 29 33 29
32 0 176 c0 126 -5 195 -16 247 -80 350 -387 564 -884 617 -130 13 -443 11
-570 -5z"/>
<path d="M5785 19570 c-561 -3 -1027 -9 -1036 -13 -8 -4 -23 -21 -32 -36 -15
-25 -17 -61 -17 -261 0 -248 5 -275 53 -302 16 -10 111 -14 357 -18 l335 -5 5
-1250 c4 -1009 8 -1255 18 -1276 27 -52 37 -54 327 -57 312 -4 365 0 403 33
l27 23 5 1264 5 1263 341 5 c368 5 360 4 390 61 11 22 14 77 14 254 0 230 -7
279 -41 301 -28 17 -154 19 -1154 14z"/>
<path d="M7293 19570 c-37 -4 -60 -13 -75 -28 l-23 -23 -3 -1538 c-1 -971 1
-1549 7 -1565 6 -14 22 -33 38 -43 25 -16 55 -18 339 -18 336 0 349 2 375 54
11 21 15 150 19 641 l5 615 405 3 c223 1 415 0 428 -3 l22 -5 0 -613 c0 -591
1 -613 20 -644 11 -18 32 -36 47 -40 15 -5 163 -8 329 -8 324 0 338 2 365 53
12 21 14 284 14 1557 0 1651 3 1569 -51 1594 -33 15 -645 16 -673 1 -46 -24
-46 -24 -51 -655 l-5 -600 -427 -3 -427 -2 -3 597 c-3 648 -3 640 -58 663 -29
12 -519 20 -617 10z"/>
<path d="M20555 19570 c-77 -7 -102 -21 -115 -68 -14 -52 -14 -3022 1 -3074 7
-27 20 -43 42 -55 30 -17 93 -18 922 -18 846 0 892 1 919 18 50 33 56 65 56
302 0 225 -6 262 -45 295 -15 13 -99 16 -569 20 l-551 5 -3 353 -2 352 455 0
c300 0 471 4 500 11 80 20 80 19 83 291 3 208 1 243 -13 265 -34 52 -47 53
-555 53 l-470 0 2 308 3 307 520 5 c584 6 564 3 584 77 14 49 14 437 0 486
-19 71 35 66 -879 69 -454 2 -852 1 -885 -2z"/>
<path d="M22817 19570 l-309 -5 -20 -25 c-25 -31 -21 -74 17 -155 29 -63 323
-729 632 -1430 102 -231 194 -438 204 -459 18 -37 19 -69 19 -535 0 -313 4
-510 11 -533 19 -70 32 -73 374 -73 165 0 312 3 327 8 15 4 36 19 45 34 17 25
18 75 23 598 l5 570 106 225 c59 124 118 250 131 280 14 30 69 150 123 265 53
116 111 239 127 275 32 69 143 309 302 652 53 115 96 219 96 233 0 14 -11 37
-25 50 l-24 25 -253 1 c-409 2 -399 3 -440 -53 -25 -35 -28 -40 -137 -298 -38
-91 -127 -300 -196 -465 -70 -165 -144 -351 -164 -412 -20 -62 -39 -113 -43
-113 -4 0 -12 19 -18 43 -16 65 -102 327 -157 482 -28 77 -76 210 -106 295
-30 85 -77 215 -103 289 -69 191 -97 226 -189 233 -27 1 -189 1 -358 -2z"/>
<path d="M10100 19550 c-12 -12 -25 -32 -30 -46 -6 -16 -10 -597 -10 -1541 0
-1658 -3 -1562 57 -1594 22 -12 174 -14 919 -14 890 0 893 0 921 21 48 36 55
75 51 319 -3 241 -9 264 -64 285 -15 6 -246 10 -565 10 l-539 0 0 355 0 354
478 3 c519 3 519 3 548 59 22 43 20 475 -2 507 -36 52 -37 52 -549 52 l-475 0
0 310 0 310 510 0 c571 0 568 0 595 64 18 44 22 454 4 504 -23 66 33 62 -944
62 -877 0 -885 0 -905 -20z"/>
<path d="M13118 19551 c-15 -12 -30 -38 -37 -65 -16 -65 -14 -2995 2 -3050 7
-21 25 -48 40 -60 28 -21 32 -21 695 -20 629 0 675 1 802 22 397 62 647 205
767 438 68 133 75 178 71 500 -3 262 -5 282 -26 335 -60 150 -199 284 -380
368 -28 14 -52 28 -52 32 0 3 30 29 66 55 86 63 156 150 197 244 l32 75 0 290
0 290 -33 77 c-104 241 -314 379 -692 456 -125 25 -127 25 -775 29 -643 4
-651 4 -677 -16z m1247 -616 c140 -51 182 -125 172 -309 -3 -56 -11 -118 -18
-139 -30 -91 -143 -172 -274 -197 -35 -6 -130 -10 -225 -8 l-165 3 -3 325 c-1
179 0 331 3 338 8 23 443 11 510 -13z m105 -1265 c75 -27 124 -56 162 -96 48
-52 58 -91 58 -236 0 -118 -3 -139 -24 -183 -43 -93 -138 -153 -276 -175 -46
-7 -163 -10 -305 -8 l-230 3 -3 350 c-1 192 0 356 3 363 4 11 55 13 278 10
255 -4 276 -6 337 -28z"/>
<path d="M15847 19559 c-48 -28 -47 23 -47 -1594 0 -1637 -2 -1566 52 -1597
18 -10 94 -13 338 -13 367 0 361 -1 380 88 7 36 10 514 8 1552 -3 1617 -1
1539 -55 1564 -33 15 -651 15 -676 0z"/>
<path d="M25284 19552 c-12 -9 -27 -27 -33 -39 -8 -16 -11 -444 -11 -1550 0
-1501 0 -1529 20 -1560 11 -18 32 -36 47 -40 15 -5 426 -8 913 -8 827 0 888 1
913 17 14 10 31 27 37 38 14 27 14 504 0 531 -27 49 -32 49 -610 49 l-540 0 0
355 0 354 478 3 c530 3 528 3 551 69 16 46 15 456 -2 489 -7 14 -28 33 -47 42
-32 16 -78 18 -507 18 l-473 0 0 310 0 310 513 0 c467 0 515 2 547 18 56 27
62 60 58 322 -3 240 -7 257 -55 279 -17 8 -298 11 -901 11 -816 0 -878 -2
-898 -18z"/>
<path d="M27568 19555 c-17 -10 -31 -29 -37 -53 -7 -25 -11 -533 -11 -1547 0
-1418 1 -1512 18 -1545 31 -63 21 -62 757 -57 612 4 669 6 785 25 313 53 495
135 655 296 70 71 99 108 127 166 78 164 73 84 73 1125 0 880 -1 933 -19 990
-82 266 -288 450 -607 545 -215 64 -198 63 -989 67 -630 2 -729 1 -752 -12z
m1262 -625 c162 -21 270 -90 310 -197 19 -52 20 -79 20 -768 0 -689 -1 -716
-20 -768 -36 -97 -131 -162 -276 -192 -62 -12 -131 -15 -319 -13 l-240 3 -3
960 c-1 528 0 966 3 973 6 15 409 17 525 2z"/>
</g>
</svg>
